<?xml version="1.0" encoding="UTF-8" standalone="no"?>
<!-- Created with Inkscape (http://www.inkscape.org/) -->

<svg
   xmlns:dc="http://purl.org/dc/elements/1.1/"
   xmlns:cc="http://creativecommons.org/ns#"
   xmlns:rdf="http://www.w3.org/1999/02/22-rdf-syntax-ns#"
   xmlns:svg="http://www.w3.org/2000/svg"
   xmlns="http://www.w3.org/2000/svg"
   xmlns:sodipodi="http://sodipodi.sourceforge.net/DTD/sodipodi-0.dtd"
   xmlns:inkscape="http://www.inkscape.org/namespaces/inkscape"
   id="svg2"
   version="1.1"
   inkscape:version="0.48.4 r9939"
   width="885"
   height="347.5"
   xml:space="preserve"
   sodipodi:docname="logo.svg"
   inkscape:export-filename="/home/enol/repo/enoliglesias.github.io/images/logo.png"
   inkscape:export-xdpi="90"
   inkscape:export-ydpi="90"><metadata
     id="metadata8"><rdf:RDF><cc:Work
         rdf:about=""><dc:format>image/svg+xml</dc:format><dc:type
           rdf:resource="http://purl.org/dc/dcmitype/StillImage" /><dc:title></dc:title></cc:Work></rdf:RDF></metadata><defs
     id="defs6" /><sodipodi:namedview
     pagecolor="#ffffff"
     bordercolor="#666666"
     borderopacity="1"
     objecttolerance="10"
     gridtolerance="10"
     guidetolerance="10"
     inkscape:pageopacity="0"
     inkscape:pageshadow="2"
     inkscape:window-width="1861"
     inkscape:window-height="1056"
     id="namedview4"
     showgrid="false"
     inkscape:zoom="0.4079096"
     inkscape:cx="153.22022"
     inkscape:cy="271.81094"
     inkscape:window-x="59"
     inkscape:window-y="24"
     inkscape:window-maximized="1"
     inkscape:current-layer="layer1" /><g
     inkscape:groupmode="layer"
     id="layer1"
     inkscape:label="Layer" /><g
     id="g10"
     inkscape:groupmode="layer"
     inkscape:label="ink_ext_XXXXXX"
     transform="matrix(1.25,0,0,-1.25,0,347.5)"
     style="display:inline"><g
       id="g12"
       transform="scale(0.1,0.1)"><path
         d="m 120,120 6840,0 0,1250 -6840,0 0,-1250 z"
         style="fill:#131112;fill-opacity:1;fill-rule:nonzero;stroke:none"
         id="path14"
         inkscape:connector-curvature="0" /><path
         d="m 234.75,1969.38 0,504.49 184.938,0 0,-523.36 c 0,-98.13 36.484,-152.23 114.488,-152.23 78.004,0 115.746,54.1 115.746,152.23 l 0,523.36 178.648,0 0,-504.49 c 0,-212.62 -95.617,-330.88 -294.394,-330.88 -200.035,0 -299.426,118.26 -299.426,330.88"
         style="fill:#131112;fill-opacity:1;fill-rule:nonzero;stroke:none"
         id="path16"
         inkscape:connector-curvature="0" /><path
         d="m 998.43,2277.61 150.97,0 13.84,-83.04 5.03,0 c 54.1,52.85 122.03,98.14 215.13,98.14 140.91,0 203.81,-96.87 203.81,-254.14 l 0,-384.97 -184.93,0 0,361.07 c 0,83.04 -23.91,120.78 -91.85,120.78 -50.32,0 -83.03,-22.65 -127.06,-65.43 l 0,-416.42 -184.94,0 0,624.01"
         style="fill:#131112;fill-opacity:1;fill-rule:nonzero;stroke:none"
         id="path18"
         inkscape:connector-curvature="0" /><path
         d="m 2140.79,1847.34 0,252.88 c -33.97,30.19 -67.93,41.52 -104.42,41.52 -67.94,0 -125.81,-55.36 -125.81,-173.62 0,-123.29 44.03,-178.65 120.78,-178.65 41.52,0 76.74,16.35 109.45,57.87 z m -420.2,118.27 c 0,203.8 130.84,327.1 266.71,327.1 69.2,0 115.75,-23.91 157.27,-66.68 l 5.03,0 -8.81,96.87 0,212.62 184.94,0 0,-881.92 -150.97,0 -13.84,64.16 -3.77,0 c -46.55,-45.29 -110.71,-79.26 -173.62,-79.26 -158.52,0 -262.94,123.29 -262.94,327.11"
         style="fill:#131112;fill-opacity:1;fill-rule:nonzero;stroke:none"
         id="path20"
         inkscape:connector-curvature="0" /><path
         d="m 2671.73,2034.8 266.72,0 c -8.81,76.74 -51.58,117 -123.3,117 -72.97,0 -124.55,-39 -143.42,-117 z m -187.46,-69.19 c 0,205.07 157.26,327.1 324.59,327.1 192.49,0 294.39,-129.58 294.39,-299.43 0,-33.97 -6.29,-67.93 -8.81,-83.03 l -425.23,0 c 17.62,-90.58 84.3,-130.84 186.2,-130.84 56.61,0 105.67,15.09 161.04,44.03 l 61.64,-111.97 c -71.71,-45.29 -164.81,-72.97 -247.85,-72.97 -195,0 -345.97,119.52 -345.97,327.11"
         style="fill:#131112;fill-opacity:1;fill-rule:nonzero;stroke:none"
         id="path22"
         inkscape:connector-curvature="0" /><path
         d="m 3436.66,2132.93 -164.8,0 0,137.13 164.8,7.55 0,16.35 c 0,143.43 84.3,256.65 279.3,256.65 71.71,0 135.88,-16.35 188.71,-33.97 l -35.23,-135.87 c -38.99,15.1 -83.02,23.91 -130.84,23.91 -79.25,0 -117,-33.97 -117,-109.45 l 0,-17.62 215.14,0 0,-144.68 -215.14,0 0,-479.33 -184.94,0 0,479.33"
         style="fill:#131112;fill-opacity:1;fill-rule:nonzero;stroke:none"
         id="path24"
         inkscape:connector-curvature="0" /><path
         d="m 4233.06,2487.71 c 0,67.94 51.58,115.74 123.29,115.74 71.71,0 123.29,-47.8 123.29,-115.74 0,-67.94 -51.58,-111.97 -123.29,-111.97 -71.71,0 -123.29,44.03 -123.29,111.97 z m 38.99,-354.78 -250.36,0 0,144.68 435.3,0 0,-624.01 -184.94,0 0,479.33"
         style="fill:#131112;fill-opacity:1;fill-rule:nonzero;stroke:none"
         id="path26"
         inkscape:connector-curvature="0" /><path
         d="m 4766.5,2277.61 150.97,0 13.84,-83.04 5.03,0 c 54.1,52.85 122.04,98.14 215.13,98.14 140.91,0 203.81,-96.87 203.81,-254.14 l 0,-384.97 -184.94,0 0,361.07 c 0,83.04 -23.89,120.78 -91.83,120.78 -50.33,0 -83.04,-22.65 -127.07,-65.43 l 0,-416.42 -184.94,0 0,624.01"
         style="fill:#131112;fill-opacity:1;fill-rule:nonzero;stroke:none"
         id="path28"
         inkscape:connector-curvature="0" /><path
         d="m 5686.18,2034.8 266.72,0 c -8.81,76.74 -51.58,117 -123.3,117 -72.97,0 -124.55,-39 -143.42,-117 z m -187.45,-69.19 c 0,205.07 157.26,327.1 324.58,327.1 192.49,0 294.4,-129.58 294.4,-299.43 0,-33.97 -6.29,-67.93 -8.81,-83.03 l -425.24,0 c 17.62,-90.58 84.3,-130.84 186.2,-130.84 56.61,0 105.68,15.09 161.04,44.03 l 61.64,-111.97 c -71.71,-45.29 -164.81,-72.97 -247.84,-72.97 -195,0 -345.97,119.52 -345.97,327.11"
         style="fill:#131112;fill-opacity:1;fill-rule:nonzero;stroke:none"
         id="path30"
         inkscape:connector-curvature="0" /><path
         d="m 6662.48,1847.34 0,252.88 c -33.97,30.19 -67.94,41.52 -104.42,41.52 -67.94,0 -125.81,-55.36 -125.81,-173.62 0,-123.29 44.03,-178.65 120.77,-178.65 41.52,0 76.75,16.35 109.46,57.87 z m -420.2,118.27 c 0,203.8 130.84,327.1 266.7,327.1 69.2,0 115.76,-23.91 157.27,-66.68 l 5.03,0 -8.8,96.87 0,212.62 184.93,0 0,-881.92 -150.96,0 -13.84,64.16 -3.78,0 c -46.54,-45.29 -110.71,-79.26 -173.62,-79.26 -158.51,0 -262.93,123.29 -262.93,327.11"
         style="fill:#131112;fill-opacity:1;fill-rule:nonzero;stroke:none"
         id="path32"
         inkscape:connector-curvature="0" /><path
         d="m 1242.78,1167.15 204.29,0 84.9,-306.439 29.19,-119.391 5.3,0 29.19,119.391 84.9,306.439 204.28,0 0,-864.912 -164.49,0 0,267.961 c 0,96.84 17.25,307.75 25.21,400.61 l -3.98,0 -66.33,-230.821 -66.33,-208.269 -95.51,0 -67.66,208.269 -62.34,230.821 -3.98,0 c 9.28,-92.86 25.2,-303.77 25.2,-400.61 l 0,-267.961 -161.84,0 0,864.912"
         style="fill:#ffffff;fill-opacity:1;fill-rule:nonzero;stroke:none"
         id="path34"
         inkscape:connector-curvature="0" /><path
         d="m 2231.08,704.18 281.23,0 c -9.29,80.91 -54.39,123.371 -130,123.371 -76.94,0 -131.33,-41.129 -151.23,-123.371 z m -197.65,-72.969 c 0,216.23 165.81,344.91 342.24,344.91 202.97,0 310.42,-136.641 310.42,-315.723 0,-35.82 -6.63,-71.628 -9.29,-87.546 l -448.37,0 c 18.57,-95.52 88.88,-137.961 196.33,-137.961 59.69,0 111.43,15.918 169.8,46.429 l 65,-118.07 c -75.61,-47.75 -173.78,-76.941 -261.33,-76.941 -205.62,0 -364.8,126.031 -364.8,344.902"
         style="fill:#ffffff;fill-opacity:1;fill-rule:nonzero;stroke:none"
         id="path36"
         inkscape:connector-curvature="0" /><path
         d="m 2985.91,575.512 0,232.148 -165.82,0 0,144.59 175.11,7.961 25.2,201.629 160.51,0 0,-201.629 278.57,0 0,-152.551 -278.57,0 0,-230.828 c 0,-99.5 42.45,-137.961 139.29,-137.961 49.08,0 90.2,10.609 130.01,23.867 l 34.48,-140.609 c -58.37,-17.238 -127.35,-35.82 -214.9,-35.82 -209.59,0 -283.88,116.742 -283.88,289.203"
         style="fill:#ffffff;fill-opacity:1;fill-rule:nonzero;stroke:none"
         id="path38"
         inkscape:connector-curvature="0" /><path
         d="m 3645.22,1232.15 195.01,0 0,-228.18 -10.6,-126.021 3.97,0 c 49.08,50.422 119.39,98.172 218.88,98.172 147.25,0 213.57,-102.152 213.57,-267.973 l 0,-405.91 -195,0 0,380.723 c 0,87.539 -25.2,127.34 -96.83,127.34 -53.07,0 -87.57,-23.879 -133.99,-68.981 l 0,-439.082 -195.01,0 0,929.912"
         style="fill:#ffffff;fill-opacity:1;fill-rule:nonzero;stroke:none"
         id="path40"
         inkscape:connector-curvature="0" /><path
         d="m 4877.62,631.211 c 0,114.09 -45.1,187.051 -135.33,187.051 -90.2,0 -135.3,-72.961 -135.3,-187.051 0,-114.082 45.1,-187.031 135.3,-187.031 90.23,0 135.33,72.949 135.33,187.031 z m -470.92,0 c 0,218.891 161.83,344.91 335.59,344.91 173.8,0 335.63,-126.019 335.63,-344.91 0,-218.871 -161.83,-344.902 -335.63,-344.902 -173.76,0 -335.59,126.031 -335.59,344.902"
         style="fill:#ffffff;fill-opacity:1;fill-rule:nonzero;stroke:none"
         id="path42"
         inkscape:connector-curvature="0" /><path
         d="m 5644.38,506.52 0,266.628 c -35.82,31.852 -71.63,43.782 -110.09,43.782 -71.65,0 -132.68,-58.371 -132.68,-183.059 0,-130 46.45,-188.371 127.36,-188.371 43.78,0 80.91,17.238 115.41,61.02 z m -443.06,124.691 c 0,214.91 137.96,344.91 281.21,344.91 72.97,0 122.06,-25.199 165.82,-70.312 l 5.32,0 -9.29,102.151 0,224.19 195,0 0,-929.912 -159.18,0 -14.58,67.641 -4,0 c -49.08,-47.75 -116.73,-83.57 -183.07,-83.57 -167.13,0 -277.23,130 -277.23,344.902"
         style="fill:#ffffff;fill-opacity:1;fill-rule:nonzero;stroke:none"
         id="path44"
         inkscape:connector-curvature="0" /><path
         d="m 25,25 7030,0 0,2730 -7030,0 0,-2730 z"
         style="fill:none;stroke:#131112;stroke-width:50;stroke-linecap:butt;stroke-linejoin:miter;stroke-miterlimit:10;stroke-opacity:1;stroke-dasharray:none"
         id="path46"
         inkscape:connector-curvature="0" /></g></g></svg>